<svg xmlns="http://www.w3.org/2000/svg" xmlns:xlink="http://www.w3.org/1999/xlink" width="500" zoomAndPan="magnify" viewBox="0 0 375 374.999991" height="500" preserveAspectRatio="xMidYMid meet" version="1.0"><defs><g/><clipPath id="be71db16b1"><path d="M 116.167969 100.578125 L 258.832031 100.578125 L 258.832031 243.238281 L 116.167969 243.238281 Z M 116.167969 100.578125 " clip-rule="nonzero"/></clipPath><clipPath id="db032bafa4"><path d="M 187.5 100.578125 C 148.105469 100.578125 116.167969 132.511719 116.167969 171.90625 C 116.167969 211.304688 148.105469 243.238281 187.5 243.238281 C 226.894531 243.238281 258.832031 211.304688 258.832031 171.90625 C 258.832031 132.511719 226.894531 100.578125 187.5 100.578125 Z M 187.5 100.578125 " clip-rule="nonzero"/></clipPath><clipPath id="67c8eca2cb"><path d="M 116.167969 100.578125 L 258.667969 100.578125 L 258.667969 243.078125 L 116.167969 243.078125 Z M 116.167969 100.578125 " clip-rule="nonzero"/></clipPath><clipPath id="ac07d7ca87"><path d="M 187.496094 100.578125 C 148.101562 100.578125 116.167969 132.511719 116.167969 171.902344 C 116.167969 211.296875 148.101562 243.230469 187.496094 243.230469 C 226.886719 243.230469 258.820312 211.296875 258.820312 171.902344 C 258.820312 132.511719 226.886719 100.578125 187.496094 100.578125 Z M 187.496094 100.578125 " clip-rule="nonzero"/></clipPath></defs><g clip-path="url(#be71db16b1)"><g clip-path="url(#db032bafa4)"><path fill="#ffffff" d="M 116.167969 100.578125 L 258.832031 100.578125 L 258.832031 243.238281 L 116.167969 243.238281 Z M 116.167969 100.578125 " fill-opacity="1" fill-rule="nonzero"/></g></g><g clip-path="url(#67c8eca2cb)"><g clip-path="url(#ac07d7ca87)"><path stroke-linecap="butt" transform="matrix(0.75, 0, 0, 0.75, 116.169153, 100.577125)" fill="none" stroke-linejoin="miter" d="M 95.102594 0.00133387 C 42.576549 0.00133387 -0.00157883 42.579462 -0.00157883 95.100298 C -0.00157883 147.626344 42.576549 190.204471 95.102594 190.204471 C 147.623431 190.204471 190.201559 147.626344 190.201559 95.100298 C 190.201559 42.579462 147.623431 0.00133387 95.102594 0.00133387 Z M 95.102594 0.00133387 " stroke="#020202" stroke-width="8" stroke-opacity="1" stroke-miterlimit="4"/></g></g><path fill="#ffffff" d="M 107.953125 157.902344 L 267.035156 157.902344 L 267.035156 185.914062 L 107.953125 185.914062 L 107.953125 157.902344 " fill-opacity="1" fill-rule="nonzero"/><g fill="#020202" fill-opacity="1"><g transform="translate(117.377491, 177.907956)"><g><path d="M 0.351562 -10.816406 L 3.242188 -10.816406 L 3.242188 -0.0351562 L 4.46875 -0.0351562 L 4.46875 -10.816406 L 7.363281 -10.816406 L 7.363281 -11.953125 L 0.351562 -11.953125 Z M 0.351562 -10.816406 "/></g></g></g><g fill="#020202" fill-opacity="1"><g transform="translate(129.907812, 177.907956)"><g><path d="M 11.8125 -5.996094 C 11.8125 -4.628906 11.324219 -3.46875 10.375 -2.523438 C 9.414062 -1.558594 8.253906 -1.085938 6.90625 -1.085938 C 5.554688 -1.085938 4.398438 -1.558594 3.453125 -2.523438 C 2.488281 -3.46875 2.015625 -4.628906 2.015625 -5.996094 C 2.015625 -7.328125 2.488281 -8.484375 3.453125 -9.449219 C 4.398438 -10.394531 5.554688 -10.882812 6.90625 -10.882812 C 8.253906 -10.882812 9.414062 -10.394531 10.375 -9.449219 C 11.324219 -8.484375 11.8125 -7.328125 11.8125 -5.996094 Z M 13.039062 -5.996094 C 13.039062 -6.835938 12.863281 -7.625 12.550781 -8.378906 C 12.234375 -9.113281 11.796875 -9.761719 11.234375 -10.324219 C 10.675781 -10.867188 10.027344 -11.304688 9.289062 -11.621094 C 8.535156 -11.9375 7.746094 -12.113281 6.90625 -12.113281 C 6.066406 -12.113281 5.257812 -11.9375 4.523438 -11.621094 C 3.785156 -11.304688 3.136719 -10.867188 2.578125 -10.324219 C 2.015625 -9.761719 1.578125 -9.113281 1.261719 -8.378906 C 0.945312 -7.625 0.789062 -6.835938 0.789062 -5.996094 C 0.789062 -5.152344 0.945312 -4.347656 1.261719 -3.609375 C 1.578125 -2.855469 2.015625 -2.207031 2.578125 -1.648438 C 3.136719 -1.085938 3.785156 -0.648438 4.523438 -0.332031 C 5.257812 -0.015625 6.066406 0.140625 6.90625 0.140625 C 7.746094 0.140625 8.535156 -0.015625 9.289062 -0.332031 C 10.027344 -0.648438 10.675781 -1.085938 11.234375 -1.648438 C 11.796875 -2.207031 12.234375 -2.855469 12.550781 -3.609375 C 12.863281 -4.347656 13.039062 -5.152344 13.039062 -5.996094 Z M 13.039062 -5.996094 "/></g></g></g><g fill="#020202" fill-opacity="1"><g transform="translate(148.552425, 177.907956)"><g><path d="M 5.925781 -5.609375 L 10.429688 -11.917969 L 8.867188 -11.917969 L 5.3125 -6.816406 L 1.753906 -11.917969 L 0.175781 -11.917969 L 4.699219 -5.589844 L 4.699219 0 L 5.925781 0 Z M 5.925781 -5.609375 "/></g></g></g><g fill="#020202" fill-opacity="1"><g transform="translate(163.973456, 177.907956)"><g/></g></g><g fill="#020202" fill-opacity="1"><g transform="translate(173.525464, 177.907956)"><g><path d="M 12.25 -3.644531 L 10.902344 -3.644531 C 10.480469 -2.875 9.902344 -2.242188 9.167969 -1.789062 C 8.429688 -1.316406 7.605469 -1.085938 6.730469 -1.085938 C 5.414062 -1.085938 4.292969 -1.558594 3.367188 -2.542969 C 2.453125 -3.46875 2.015625 -4.609375 2.015625 -5.941406 C 2.015625 -7.273438 2.453125 -8.414062 3.367188 -9.359375 C 3.785156 -9.796875 4.292969 -10.148438 4.871094 -10.410156 C 5.433594 -10.675781 5.996094 -10.816406 6.554688 -10.816406 C 7.097656 -10.816406 7.570312 -10.746094 7.992188 -10.621094 C 9.273438 -10.234375 10.234375 -9.464844 10.882812 -8.289062 L 12.234375 -8.289062 C 11.777344 -9.414062 11.058594 -10.324219 10.0625 -11.023438 C 9.042969 -11.726562 7.941406 -12.078125 6.730469 -12.078125 C 5.066406 -12.078125 3.664062 -11.464844 2.507812 -10.253906 C 1.964844 -9.691406 1.542969 -9.027344 1.246094 -8.289062 C 0.929688 -7.554688 0.789062 -6.765625 0.789062 -5.941406 C 0.789062 -4.257812 1.351562 -2.839844 2.507812 -1.648438 C 3.664062 -0.421875 5.066406 0.175781 6.730469 0.175781 C 7.941406 0.175781 9.042969 -0.175781 10.078125 -0.875 C 11.078125 -1.578125 11.796875 -2.488281 12.25 -3.644531 Z M 12.25 -3.644531 "/></g></g></g><g fill="#020202" fill-opacity="1"><g transform="translate(191.118911, 177.907956)"><g><path d="M 8.394531 0 L 8.394531 -1.140625 L 2.542969 -1.140625 L 2.542969 -5.382812 L 8.21875 -5.382812 L 8.21875 -6.539062 L 2.542969 -6.539062 L 2.542969 -10.78125 L 8.394531 -10.78125 L 8.394531 -11.917969 L 1.316406 -11.917969 L 1.316406 0 Z M 8.394531 0 "/></g></g></g><g fill="#020202" fill-opacity="1"><g transform="translate(205.646452, 177.907956)"><g><path d="M 2.542969 -8.78125 L 9.238281 0.734375 L 9.238281 -11.917969 L 8.011719 -11.917969 L 8.011719 -3.15625 L 1.316406 -12.671875 L 1.316406 0 L 2.542969 0 Z M 2.542969 -8.78125 "/></g></g></g><g fill="#020202" fill-opacity="1"><g transform="translate(221.014928, 177.907956)"><g><path d="M 0.351562 -10.816406 L 3.242188 -10.816406 L 3.242188 -0.0351562 L 4.46875 -0.0351562 L 4.46875 -10.816406 L 7.363281 -10.816406 L 7.363281 -11.953125 L 0.351562 -11.953125 Z M 0.351562 -10.816406 "/></g></g></g><g fill="#020202" fill-opacity="1"><g transform="translate(233.545246, 177.907956)"><g><path d="M 8.394531 0 L 8.394531 -1.140625 L 2.542969 -1.140625 L 2.542969 -5.382812 L 8.21875 -5.382812 L 8.21875 -6.539062 L 2.542969 -6.539062 L 2.542969 -10.78125 L 8.394531 -10.78125 L 8.394531 -11.917969 L 1.316406 -11.917969 L 1.316406 0 Z M 8.394531 0 "/></g></g></g><g fill="#020202" fill-opacity="1"><g transform="translate(248.072787, 177.907956)"><g><path d="M 2.542969 -5.890625 L 2.542969 -10.746094 L 5.3125 -10.746094 C 6.03125 -10.746094 6.609375 -10.515625 7.046875 -10.0625 C 7.464844 -9.605469 7.695312 -9.042969 7.695312 -8.34375 C 7.695312 -7.640625 7.464844 -7.0625 7.011719 -6.589844 C 6.554688 -6.117188 5.996094 -5.890625 5.3125 -5.890625 Z M 8.921875 -8.324219 C 8.921875 -9.34375 8.535156 -10.21875 7.800781 -10.902344 C 7.082031 -11.566406 6.1875 -11.917969 5.136719 -11.917969 L 1.316406 -11.917969 L 1.316406 0 L 2.542969 0 L 2.542969 -4.714844 L 3.960938 -4.714844 L 7.464844 0 L 9.113281 0 L 5.433594 -4.714844 C 6.363281 -4.765625 7.152344 -5.101562 7.800781 -5.714844 C 8.535156 -6.398438 8.921875 -7.273438 8.921875 -8.324219 Z M 8.921875 -8.324219 "/></g></g></g></svg>