<svg xmlns="http://www.w3.org/2000/svg" xmlns:xlink="http://www.w3.org/1999/xlink" width="500" zoomAndPan="magnify" viewBox="0 0 375 374.999991" height="500" preserveAspectRatio="xMidYMid meet" version="1.0"><defs><g/><clipPath id="c07e998469"><path d="M 10.785156 10.785156 L 364.035156 10.785156 L 364.035156 364.035156 L 10.785156 364.035156 Z M 10.785156 10.785156 " clip-rule="nonzero"/></clipPath><clipPath id="c8894936c0"><path d="M 187.5 10.785156 C 89.902344 10.785156 10.785156 89.902344 10.785156 187.5 C 10.785156 285.09375 89.902344 364.210938 187.5 364.210938 C 285.09375 364.210938 364.210938 285.09375 364.210938 187.5 C 364.210938 89.902344 285.09375 10.785156 187.5 10.785156 Z M 187.5 10.785156 " clip-rule="nonzero"/></clipPath></defs><rect x="-37.5" width="450" fill="#ffffff" y="-37.499999" height="449.999989" fill-opacity="1"/><rect x="-37.5" width="450" fill="#0f172a" y="-37.499999" height="449.999989" fill-opacity="1"/><g clip-path="url(#c07e998469)"><g clip-path="url(#c8894936c0)"><path stroke-linecap="butt" transform="matrix(0.75, 0, 0, 0.75, 10.785674, 10.785669)" fill="none" stroke-linejoin="miter" d="M 235.619117 -0.000684162 C 105.4889 -0.000684162 -0.000690162 105.488906 -0.000690162 235.619123 C -0.000690162 365.744132 105.4889 471.233722 235.619117 471.233722 C 365.744126 471.233722 471.233716 365.744132 471.233716 235.619123 C 471.233716 105.488906 365.744126 -0.000684162 235.619117 -0.000684162 Z M 235.619117 -0.000684162 " stroke="#ffffff" stroke-width="8" stroke-opacity="1" stroke-miterlimit="4"/></g></g><path fill="#0f172a" d="M 7.648438 152.5625 L 367.332031 152.5625 C 371.914062 152.5625 376.3125 154.382812 379.550781 157.625 C 382.792969 160.863281 384.613281 165.261719 384.613281 169.84375 L 384.613281 204.40625 C 384.613281 208.988281 382.792969 213.386719 379.550781 216.625 C 376.3125 219.867188 371.914062 221.6875 367.332031 221.6875 L 7.648438 221.6875 C 3.066406 221.6875 -1.332031 219.867188 -4.570312 216.625 C -7.8125 213.386719 -9.632812 208.988281 -9.632812 204.40625 L -9.632812 169.84375 C -9.632812 165.261719 -7.8125 160.863281 -4.570312 157.625 C -1.332031 154.382812 3.066406 152.5625 7.648438 152.5625 Z M 7.648438 152.5625 " fill-opacity="1" fill-rule="nonzero"/><g fill="#ffffff" fill-opacity="1"><g transform="translate(13.715013, 201.749987)"><g><path d="M 0.867188 -26.796875 L 8.035156 -26.796875 L 8.035156 -0.0859375 L 11.074219 -0.0859375 L 11.074219 -26.796875 L 18.242188 -26.796875 L 18.242188 -29.621094 L 0.867188 -29.621094 Z M 0.867188 -26.796875 "/></g></g></g><g fill="#ffffff" fill-opacity="1"><g transform="translate(44.769407, 201.749987)"><g><path d="M 29.273438 -14.855469 C 29.273438 -11.464844 28.058594 -8.601562 25.710938 -6.253906 C 23.324219 -3.867188 20.457031 -2.691406 17.113281 -2.691406 C 13.769531 -2.691406 10.902344 -3.867188 8.554688 -6.253906 C 6.167969 -8.601562 4.996094 -11.464844 4.996094 -14.855469 C 4.996094 -18.15625 6.167969 -21.019531 8.554688 -23.410156 C 10.902344 -25.753906 13.769531 -26.972656 17.113281 -26.972656 C 20.457031 -26.972656 23.324219 -25.753906 25.710938 -23.410156 C 28.058594 -21.019531 29.273438 -18.15625 29.273438 -14.855469 Z M 32.3125 -14.855469 C 32.3125 -16.9375 31.878906 -18.894531 31.097656 -20.761719 C 30.316406 -22.585938 29.230469 -24.191406 27.839844 -25.582031 C 26.449219 -26.929688 24.84375 -28.015625 23.019531 -28.796875 C 21.152344 -29.578125 19.195312 -30.011719 17.113281 -30.011719 C 15.027344 -30.011719 13.03125 -29.578125 11.207031 -28.796875 C 9.382812 -28.015625 7.773438 -26.929688 6.382812 -25.582031 C 4.996094 -24.191406 3.910156 -22.585938 3.128906 -20.761719 C 2.34375 -18.894531 1.953125 -16.9375 1.953125 -14.855469 C 1.953125 -12.769531 2.34375 -10.769531 3.128906 -8.945312 C 3.910156 -7.078125 4.996094 -5.472656 6.382812 -4.082031 C 7.773438 -2.691406 9.382812 -1.605469 11.207031 -0.824219 C 13.03125 -0.0429688 15.027344 0.347656 17.113281 0.347656 C 19.195312 0.347656 21.152344 -0.0429688 23.019531 -0.824219 C 24.84375 -1.605469 26.449219 -2.691406 27.839844 -4.082031 C 29.230469 -5.472656 30.316406 -7.078125 31.097656 -8.945312 C 31.878906 -10.769531 32.3125 -12.769531 32.3125 -14.855469 Z M 32.3125 -14.855469 "/></g></g></g><g fill="#ffffff" fill-opacity="1"><g transform="translate(90.980732, 201.749987)"><g><path d="M 14.679688 -13.898438 L 25.84375 -29.535156 L 21.976562 -29.535156 L 13.160156 -16.894531 L 4.34375 -29.535156 L 0.433594 -29.535156 L 11.640625 -13.855469 L 11.640625 0 L 14.679688 0 Z M 14.679688 -13.898438 "/></g></g></g><g fill="#ffffff" fill-opacity="1"><g transform="translate(129.200998, 201.749987)"><g/></g></g><g fill="#ffffff" fill-opacity="1"><g transform="translate(152.872345, 201.749987)"><g><path d="M 30.359375 -9.035156 L 27.015625 -9.035156 C 25.972656 -7.121094 24.539062 -5.558594 22.714844 -4.429688 C 20.890625 -3.257812 18.851562 -2.691406 16.679688 -2.691406 C 13.421875 -2.691406 10.640625 -3.867188 8.339844 -6.296875 C 6.082031 -8.601562 4.996094 -11.421875 4.996094 -14.722656 C 4.996094 -18.023438 6.082031 -20.847656 8.339844 -23.191406 C 9.382812 -24.277344 10.640625 -25.148438 12.074219 -25.800781 C 13.464844 -26.449219 14.855469 -26.796875 16.242188 -26.796875 C 17.589844 -26.796875 18.761719 -26.625 19.804688 -26.320312 C 22.976562 -25.363281 25.363281 -23.453125 26.972656 -20.542969 L 30.316406 -20.542969 C 29.1875 -23.324219 27.40625 -25.582031 24.929688 -27.320312 C 22.410156 -29.054688 19.675781 -29.925781 16.679688 -29.925781 C 12.550781 -29.925781 9.078125 -28.40625 6.210938 -25.40625 C 4.863281 -24.019531 3.820312 -22.367188 3.082031 -20.542969 C 2.300781 -18.71875 1.953125 -16.765625 1.953125 -14.722656 C 1.953125 -10.554688 3.34375 -7.035156 6.210938 -4.082031 C 9.078125 -1.042969 12.550781 0.433594 16.679688 0.433594 C 19.675781 0.433594 22.410156 -0.433594 24.972656 -2.171875 C 27.449219 -3.910156 29.230469 -6.167969 30.359375 -9.035156 Z M 30.359375 -9.035156 "/></g></g></g><g fill="#ffffff" fill-opacity="1"><g transform="translate(196.47788, 201.749987)"><g><path d="M 20.804688 0 L 20.804688 -2.824219 L 6.296875 -2.824219 L 6.296875 -13.332031 L 20.371094 -13.332031 L 20.371094 -16.199219 L 6.296875 -16.199219 L 6.296875 -26.710938 L 20.804688 -26.710938 L 20.804688 -29.535156 L 3.257812 -29.535156 L 3.257812 0 Z M 20.804688 0 "/></g></g></g><g fill="#ffffff" fill-opacity="1"><g transform="translate(232.483234, 201.749987)"><g><path d="M 6.296875 -21.757812 L 22.890625 1.824219 L 22.890625 -29.535156 L 19.847656 -29.535156 L 19.847656 -7.816406 L 3.257812 -31.402344 L 3.257812 0 L 6.296875 0 Z M 6.296875 -21.757812 "/></g></g></g><g fill="#ffffff" fill-opacity="1"><g transform="translate(270.57322, 201.749987)"><g><path d="M 0.867188 -26.796875 L 8.035156 -26.796875 L 8.035156 -0.0859375 L 11.074219 -0.0859375 L 11.074219 -26.796875 L 18.242188 -26.796875 L 18.242188 -29.621094 L 0.867188 -29.621094 Z M 0.867188 -26.796875 "/></g></g></g><g fill="#ffffff" fill-opacity="1"><g transform="translate(301.627608, 201.749987)"><g><path d="M 20.804688 0 L 20.804688 -2.824219 L 6.296875 -2.824219 L 6.296875 -13.332031 L 20.371094 -13.332031 L 20.371094 -16.199219 L 6.296875 -16.199219 L 6.296875 -26.710938 L 20.804688 -26.710938 L 20.804688 -29.535156 L 3.257812 -29.535156 L 3.257812 0 Z M 20.804688 0 "/></g></g></g><g fill="#ffffff" fill-opacity="1"><g transform="translate(337.632961, 201.749987)"><g><path d="M 6.296875 -14.59375 L 6.296875 -26.625 L 13.160156 -26.625 C 14.941406 -26.625 16.375 -26.058594 17.460938 -24.929688 C 18.503906 -23.800781 19.066406 -22.410156 19.066406 -20.675781 C 19.066406 -18.9375 18.503906 -17.503906 17.371094 -16.332031 C 16.242188 -15.15625 14.855469 -14.59375 13.160156 -14.59375 Z M 22.105469 -20.628906 C 22.105469 -23.148438 21.152344 -25.320312 19.328125 -27.015625 C 17.546875 -28.664062 15.332031 -29.535156 12.726562 -29.535156 L 3.257812 -29.535156 L 3.257812 0 L 6.296875 0 L 6.296875 -11.683594 L 9.816406 -11.683594 L 18.503906 0 L 22.585938 0 L 13.464844 -11.683594 C 15.765625 -11.8125 17.71875 -12.640625 19.328125 -14.160156 C 21.152344 -15.851562 22.105469 -18.023438 22.105469 -20.628906 Z M 22.105469 -20.628906 "/></g></g></g></svg>