<svg xmlns="http://www.w3.org/2000/svg" xmlns:xlink="http://www.w3.org/1999/xlink" width="500" zoomAndPan="magnify" viewBox="0 0 375 374.999991" height="500" preserveAspectRatio="xMidYMid meet" version="1.0"><defs><g/><clipPath id="2b223a2ca3"><path d="M 120 202 L 252 202 L 252 247 L 120 247 Z M 120 202 " clip-rule="nonzero"/></clipPath><clipPath id="eb0b733231"><path d="M 288.710938 143.917969 L 213.4375 273.664062 L 86.289062 199.898438 L 161.5625 70.152344 Z M 288.710938 143.917969 " clip-rule="nonzero"/></clipPath><clipPath id="91edf67ddc"><path d="M 288.710938 143.917969 L 213.4375 273.664062 L 86.289062 199.898438 L 161.5625 70.152344 Z M 288.710938 143.917969 " clip-rule="nonzero"/></clipPath><clipPath id="0803b198c9"><path d="M 123 97 L 253 97 L 253 138 L 123 138 Z M 123 97 " clip-rule="nonzero"/></clipPath><clipPath id="49478b838d"><path d="M 288.710938 143.917969 L 213.4375 273.664062 L 86.289062 199.898438 L 161.5625 70.152344 Z M 288.710938 143.917969 " clip-rule="nonzero"/></clipPath><clipPath id="2540c8ed66"><path d="M 288.710938 143.917969 L 213.4375 273.664062 L 86.289062 199.898438 L 161.5625 70.152344 Z M 288.710938 143.917969 " clip-rule="nonzero"/></clipPath></defs><g clip-path="url(#2b223a2ca3)"><g clip-path="url(#eb0b733231)"><g clip-path="url(#91edf67ddc)"><path fill="#ffffff" d="M 251.03125 208.753906 L 250.410156 209.84375 L 250.097656 210.386719 L 249.773438 210.925781 L 249.121094 212 L 248.445312 213.058594 L 248.105469 213.585938 L 247.75 214.109375 L 247.042969 215.148438 L 246.3125 216.171875 L 245.945312 216.683594 L 245.566406 217.1875 C 245.3125 217.519531 245.0625 217.855469 244.804688 218.191406 L 244.019531 219.175781 C 243.886719 219.335938 243.761719 219.503906 243.625 219.664062 L 242.8125 220.632812 C 242.679688 220.792969 242.546875 220.957031 242.40625 221.113281 C 241.847656 221.738281 241.300781 222.378906 240.722656 222.988281 L 240.292969 223.449219 L 240.078125 223.683594 L 239.859375 223.910156 L 238.980469 224.8125 C 234.191406 229.621094 228.835938 233.6875 222.921875 237.015625 C 222.179688 237.421875 221.445312 237.835938 220.691406 238.214844 C 219.941406 238.609375 219.179688 238.972656 218.417969 239.34375 C 218.039062 239.527344 217.652344 239.699219 217.265625 239.875 L 216.691406 240.140625 L 216.109375 240.390625 C 215.71875 240.550781 215.332031 240.726562 214.941406 240.886719 L 213.761719 241.359375 C 212.183594 241.972656 210.589844 242.550781 208.972656 243.050781 L 208.367188 243.246094 C 208.164062 243.308594 207.960938 243.363281 207.757812 243.425781 L 206.539062 243.78125 C 205.71875 243.996094 204.902344 244.226562 204.074219 244.414062 C 197.429688 246.023438 190.691406 246.699219 183.863281 246.4375 C 177.066406 246.175781 170.277344 245.054688 163.761719 242.988281 L 162.546875 242.582031 L 161.9375 242.378906 L 161.335938 242.160156 L 160.132812 241.71875 L 158.941406 241.246094 C 158.742188 241.167969 158.542969 241.09375 158.347656 241.007812 L 157.757812 240.757812 C 157.363281 240.585938 156.96875 240.421875 156.578125 240.246094 L 155.417969 239.710938 C 155.222656 239.617188 155.027344 239.535156 154.835938 239.4375 L 154.261719 239.152344 C 153.878906 238.957031 153.496094 238.773438 153.117188 238.574219 L 151.984375 237.972656 C 151.796875 237.871094 151.605469 237.773438 151.421875 237.667969 L 150.863281 237.347656 C 150.492188 237.136719 150.121094 236.929688 149.753906 236.710938 C 148.28125 235.84375 146.847656 234.910156 145.445312 233.9375 C 144.042969 232.960938 142.675781 231.933594 141.351562 230.855469 C 140.027344 229.78125 138.742188 228.65625 137.503906 227.488281 C 136.261719 226.316406 135.0625 225.109375 133.914062 223.851562 L 133.0625 222.898438 C 132.917969 222.742188 132.78125 222.582031 132.640625 222.417969 L 132.019531 221.691406 L 131.410156 220.953125 C 131.136719 220.625 130.875 220.292969 130.613281 219.957031 C 128.511719 217.292969 126.625 214.484375 124.953125 211.53125 C 124.121094 210.058594 123.347656 208.558594 122.632812 207.035156 C 121.917969 205.507812 121.261719 203.957031 120.683594 202.382812 L 120.988281 202.242188 C 121.796875 203.707031 122.632812 205.148438 123.507812 206.558594 C 124.382812 207.972656 125.296875 209.359375 126.246094 210.710938 C 128.144531 213.414062 130.207031 215.984375 132.425781 218.429688 C 132.703125 218.734375 132.976562 219.039062 133.261719 219.335938 L 133.683594 219.785156 L 133.894531 220.007812 L 134.113281 220.226562 C 134.402344 220.519531 134.683594 220.816406 134.972656 221.109375 L 135.847656 221.972656 C 137.027344 223.109375 138.238281 224.21875 139.484375 225.277344 C 140.730469 226.339844 142.003906 227.367188 143.3125 228.34375 L 144.296875 229.070312 C 144.628906 229.3125 144.964844 229.546875 145.296875 229.78125 L 145.546875 229.960938 L 145.800781 230.132812 L 146.304688 230.476562 C 146.472656 230.589844 146.640625 230.707031 146.8125 230.820312 L 147.835938 231.492188 C 148.003906 231.601562 148.183594 231.710938 148.351562 231.820312 L 148.871094 232.144531 L 149.128906 232.308594 L 149.394531 232.464844 L 150.4375 233.101562 L 151.496094 233.714844 C 152.921875 234.511719 154.351562 235.300781 155.816406 236.015625 L 156.363281 236.289062 C 156.542969 236.378906 156.730469 236.464844 156.914062 236.550781 L 158.019531 237.074219 C 158.203125 237.160156 158.390625 237.238281 158.578125 237.320312 L 159.140625 237.570312 L 159.699219 237.816406 C 159.882812 237.898438 160.074219 237.972656 160.261719 238.050781 L 161.386719 238.527344 L 162.527344 238.984375 L 163.09375 239.207031 L 163.671875 239.417969 L 164.820312 239.839844 C 167.910156 240.929688 171.054688 241.808594 174.261719 242.46875 C 175.058594 242.644531 175.867188 242.777344 176.671875 242.925781 C 177.078125 242.992188 177.480469 243.054688 177.886719 243.117188 L 178.492188 243.210938 L 179.101562 243.289062 C 180.726562 243.515625 182.359375 243.652344 183.996094 243.757812 C 197.09375 244.539062 210.417969 241.671875 222.125 235.539062 C 225.058594 234.003906 227.875 232.277344 230.570312 230.355469 L 231.078125 229.996094 C 231.25 229.878906 231.410156 229.75 231.578125 229.628906 L 232.570312 228.886719 L 233.546875 228.121094 L 234.035156 227.734375 L 234.515625 227.339844 C 234.832031 227.074219 235.15625 226.8125 235.46875 226.542969 L 236.410156 225.730469 C 236.726562 225.460938 237.027344 225.179688 237.335938 224.902344 L 237.792969 224.480469 L 238.023438 224.273438 C 238.101562 224.203125 238.175781 224.128906 238.25 224.058594 L 239.148438 223.199219 L 239.367188 222.976562 L 240.027344 222.316406 C 240.617188 221.734375 241.179688 221.121094 241.75 220.523438 C 241.894531 220.375 242.027344 220.21875 242.171875 220.0625 L 243 219.132812 C 243.136719 218.980469 243.269531 218.820312 243.40625 218.664062 L 244.21875 217.714844 C 244.480469 217.394531 244.742188 217.070312 245.003906 216.75 L 245.398438 216.265625 L 245.78125 215.773438 L 246.542969 214.785156 L 247.28125 213.78125 L 247.648438 213.273438 L 248.003906 212.761719 L 248.71875 211.738281 L 249.402344 210.691406 L 249.746094 210.171875 L 250.074219 209.640625 L 250.738281 208.578125 Z M 251.03125 208.753906 " fill-opacity="1" fill-rule="nonzero"/></g></g></g><g clip-path="url(#0803b198c9)"><g clip-path="url(#49478b838d)"><g clip-path="url(#2540c8ed66)"><path fill="#ffffff" d="M 123.980469 135.042969 L 124.585938 133.980469 L 124.890625 133.449219 C 124.992188 133.273438 125.097656 133.097656 125.203125 132.921875 L 125.839844 131.875 C 126.054688 131.527344 126.277344 131.1875 126.496094 130.84375 C 126.929688 130.148438 127.398438 129.480469 127.855469 128.804688 C 127.96875 128.636719 128.089844 128.46875 128.207031 128.300781 L 128.566406 127.804688 C 128.804688 127.472656 129.035156 127.136719 129.285156 126.8125 L 130.027344 125.832031 C 130.148438 125.671875 130.277344 125.511719 130.402344 125.351562 L 130.78125 124.875 C 131.285156 124.230469 131.820312 123.609375 132.347656 122.984375 C 133.417969 121.742188 134.511719 120.523438 135.664062 119.359375 C 136.230469 118.765625 136.824219 118.203125 137.410156 117.628906 C 137.554688 117.480469 137.710938 117.347656 137.859375 117.207031 L 138.3125 116.789062 L 138.761719 116.371094 C 138.910156 116.230469 139.070312 116.097656 139.222656 115.960938 L 140.144531 115.148438 C 140.457031 114.878906 140.773438 114.621094 141.085938 114.355469 L 141.558594 113.960938 C 141.71875 113.832031 141.878906 113.703125 142.039062 113.574219 L 143.003906 112.808594 C 145.605469 110.789062 148.332031 108.953125 151.175781 107.296875 C 162.554688 100.660156 175.785156 97.152344 189.046875 97.292969 L 189.664062 97.296875 L 190.285156 97.3125 L 191.527344 97.351562 L 192.769531 97.414062 C 192.976562 97.425781 193.183594 97.433594 193.390625 97.449219 L 194.011719 97.496094 C 195.667969 97.605469 197.316406 97.792969 198.960938 98.011719 L 200.195312 98.191406 L 200.503906 98.234375 L 200.808594 98.285156 L 201.421875 98.390625 L 202.039062 98.496094 L 202.347656 98.539062 L 202.652344 98.601562 L 203.878906 98.839844 C 205.503906 99.183594 207.125 99.5625 208.726562 100.015625 C 211.941406 100.910156 215.070312 102.039062 218.117188 103.398438 C 219.636719 104.085938 221.136719 104.8125 222.597656 105.609375 L 223.144531 105.90625 L 223.421875 106.054688 C 223.511719 106.109375 223.601562 106.160156 223.691406 106.210938 L 224.773438 106.832031 C 225.136719 107.035156 225.488281 107.261719 225.839844 107.480469 L 226.898438 108.144531 C 232.539062 111.734375 237.554688 116.050781 241.949219 121.085938 C 244.121094 123.582031 246.097656 126.222656 247.878906 129.011719 L 248.523438 130.0625 L 248.847656 130.585938 C 248.957031 130.761719 249.066406 130.933594 249.164062 131.113281 L 249.769531 132.1875 C 249.96875 132.546875 250.171875 132.902344 250.367188 133.261719 C 250.742188 133.992188 251.113281 134.722656 251.480469 135.457031 C 251.828125 136.199219 252.171875 136.941406 252.503906 137.6875 L 252.207031 137.84375 C 251.757812 137.160156 251.320312 136.476562 250.886719 135.792969 L 249.519531 133.785156 L 248.097656 131.816406 C 247.980469 131.652344 247.855469 131.496094 247.730469 131.335938 L 247.367188 130.855469 L 246.628906 129.894531 C 244.636719 127.371094 242.5 124.972656 240.21875 122.703125 C 235.671875 118.183594 230.648438 114.28125 225.140625 110.996094 L 224.109375 110.394531 C 223.765625 110.195312 223.429688 109.988281 223.078125 109.800781 L 222.03125 109.226562 C 221.945312 109.175781 221.859375 109.125 221.769531 109.082031 L 221.503906 108.945312 L 220.976562 108.671875 L 220.449219 108.394531 L 220.183594 108.257812 L 219.917969 108.125 L 218.847656 107.597656 C 218.667969 107.507812 218.492188 107.421875 218.3125 107.339844 L 217.773438 107.089844 L 217.230469 106.835938 C 217.050781 106.753906 216.875 106.667969 216.691406 106.589844 C 213.789062 105.296875 210.824219 104.144531 207.785156 103.203125 C 206.273438 102.710938 204.734375 102.300781 203.1875 101.917969 L 202.027344 101.644531 L 201.738281 101.574219 L 201.445312 101.515625 L 200.859375 101.390625 L 200.277344 101.269531 L 199.984375 101.207031 L 199.6875 101.15625 L 198.515625 100.9375 C 196.941406 100.675781 195.363281 100.441406 193.773438 100.285156 L 193.175781 100.226562 C 192.980469 100.203125 192.78125 100.191406 192.582031 100.175781 L 191.386719 100.082031 L 190.191406 100.019531 L 189.59375 99.984375 L 188.996094 99.96875 L 187.796875 99.9375 L 186.597656 99.933594 C 186.398438 99.933594 186.199219 99.929688 186 99.933594 L 185.398438 99.949219 L 184.800781 99.960938 C 184.601562 99.964844 184.402344 99.964844 184.203125 99.976562 C 183.402344 100.015625 182.605469 100.042969 181.808594 100.105469 L 181.207031 100.148438 L 180.910156 100.167969 L 180.609375 100.195312 L 179.417969 100.308594 C 179.21875 100.324219 179.019531 100.347656 178.820312 100.371094 L 178.222656 100.441406 C 177.828125 100.488281 177.429688 100.53125 177.035156 100.589844 L 175.84375 100.757812 C 175.449219 100.820312 175.054688 100.886719 174.660156 100.953125 L 174.066406 101.050781 L 173.476562 101.164062 L 172.296875 101.386719 L 171.125 101.636719 C 170.929688 101.679688 170.730469 101.71875 170.535156 101.765625 L 169.953125 101.90625 C 168.390625 102.265625 166.847656 102.699219 165.3125 103.164062 L 164.164062 103.527344 C 163.972656 103.585938 163.78125 103.652344 163.59375 103.71875 L 163.023438 103.914062 L 162.453125 104.105469 C 162.261719 104.171875 162.078125 104.246094 161.886719 104.3125 L 160.757812 104.730469 C 151.601562 108.203125 143.484375 113.324219 136.40625 120.09375 C 135.230469 121.203125 134.109375 122.367188 133.007812 123.554688 C 132.46875 124.15625 131.921875 124.753906 131.402344 125.375 L 131.007812 125.835938 C 130.875 125.992188 130.742188 126.140625 130.617188 126.300781 L 129.851562 127.242188 C 129.589844 127.554688 129.347656 127.878906 129.097656 128.195312 L 128.726562 128.679688 C 128.605469 128.839844 128.476562 129 128.359375 129.164062 C 127.882812 129.816406 127.390625 130.464844 126.933594 131.132812 C 126.703125 131.464844 126.472656 131.796875 126.242188 132.132812 L 125.574219 133.152344 C 125.464844 133.320312 125.351562 133.488281 125.242188 133.660156 L 124.917969 134.175781 L 124.273438 135.207031 Z M 123.980469 135.042969 " fill-opacity="1" fill-rule="nonzero"/></g></g></g><g fill="#ffffff" fill-opacity="1"><g transform="translate(117.377491, 177.907956)"><g><path d="M 0.351562 -10.816406 L 3.242188 -10.816406 L 3.242188 -0.0351562 L 4.46875 -0.0351562 L 4.46875 -10.816406 L 7.363281 -10.816406 L 7.363281 -11.953125 L 0.351562 -11.953125 Z M 0.351562 -10.816406 "/></g></g></g><g fill="#ffffff" fill-opacity="1"><g transform="translate(129.907812, 177.907956)"><g><path d="M 11.8125 -5.996094 C 11.8125 -4.628906 11.324219 -3.46875 10.375 -2.523438 C 9.414062 -1.558594 8.253906 -1.085938 6.90625 -1.085938 C 5.554688 -1.085938 4.398438 -1.558594 3.453125 -2.523438 C 2.488281 -3.46875 2.015625 -4.628906 2.015625 -5.996094 C 2.015625 -7.328125 2.488281 -8.484375 3.453125 -9.449219 C 4.398438 -10.394531 5.554688 -10.882812 6.90625 -10.882812 C 8.253906 -10.882812 9.414062 -10.394531 10.375 -9.449219 C 11.324219 -8.484375 11.8125 -7.328125 11.8125 -5.996094 Z M 13.039062 -5.996094 C 13.039062 -6.835938 12.863281 -7.625 12.550781 -8.378906 C 12.234375 -9.113281 11.796875 -9.761719 11.234375 -10.324219 C 10.675781 -10.867188 10.027344 -11.304688 9.289062 -11.621094 C 8.535156 -11.9375 7.746094 -12.113281 6.90625 -12.113281 C 6.066406 -12.113281 5.257812 -11.9375 4.523438 -11.621094 C 3.785156 -11.304688 3.136719 -10.867188 2.578125 -10.324219 C 2.015625 -9.761719 1.578125 -9.113281 1.261719 -8.378906 C 0.945312 -7.625 0.789062 -6.835938 0.789062 -5.996094 C 0.789062 -5.152344 0.945312 -4.347656 1.261719 -3.609375 C 1.578125 -2.855469 2.015625 -2.207031 2.578125 -1.648438 C 3.136719 -1.085938 3.785156 -0.648438 4.523438 -0.332031 C 5.257812 -0.015625 6.066406 0.140625 6.90625 0.140625 C 7.746094 0.140625 8.535156 -0.015625 9.289062 -0.332031 C 10.027344 -0.648438 10.675781 -1.085938 11.234375 -1.648438 C 11.796875 -2.207031 12.234375 -2.855469 12.550781 -3.609375 C 12.863281 -4.347656 13.039062 -5.152344 13.039062 -5.996094 Z M 13.039062 -5.996094 "/></g></g></g><g fill="#ffffff" fill-opacity="1"><g transform="translate(148.552425, 177.907956)"><g><path d="M 5.925781 -5.609375 L 10.429688 -11.917969 L 8.867188 -11.917969 L 5.3125 -6.816406 L 1.753906 -11.917969 L 0.175781 -11.917969 L 4.699219 -5.589844 L 4.699219 0 L 5.925781 0 Z M 5.925781 -5.609375 "/></g></g></g><g fill="#ffffff" fill-opacity="1"><g transform="translate(163.973456, 177.907956)"><g/></g></g><g fill="#ffffff" fill-opacity="1"><g transform="translate(173.525464, 177.907956)"><g><path d="M 12.25 -3.644531 L 10.902344 -3.644531 C 10.480469 -2.875 9.902344 -2.242188 9.167969 -1.789062 C 8.429688 -1.316406 7.605469 -1.085938 6.730469 -1.085938 C 5.414062 -1.085938 4.292969 -1.558594 3.367188 -2.542969 C 2.453125 -3.46875 2.015625 -4.609375 2.015625 -5.941406 C 2.015625 -7.273438 2.453125 -8.414062 3.367188 -9.359375 C 3.785156 -9.796875 4.292969 -10.148438 4.871094 -10.410156 C 5.433594 -10.675781 5.996094 -10.816406 6.554688 -10.816406 C 7.097656 -10.816406 7.570312 -10.746094 7.992188 -10.621094 C 9.273438 -10.234375 10.234375 -9.464844 10.882812 -8.289062 L 12.234375 -8.289062 C 11.777344 -9.414062 11.058594 -10.324219 10.0625 -11.023438 C 9.042969 -11.726562 7.941406 -12.078125 6.730469 -12.078125 C 5.066406 -12.078125 3.664062 -11.464844 2.507812 -10.253906 C 1.964844 -9.691406 1.542969 -9.027344 1.246094 -8.289062 C 0.929688 -7.554688 0.789062 -6.765625 0.789062 -5.941406 C 0.789062 -4.257812 1.351562 -2.839844 2.507812 -1.648438 C 3.664062 -0.421875 5.066406 0.175781 6.730469 0.175781 C 7.941406 0.175781 9.042969 -0.175781 10.078125 -0.875 C 11.078125 -1.578125 11.796875 -2.488281 12.25 -3.644531 Z M 12.25 -3.644531 "/></g></g></g><g fill="#ffffff" fill-opacity="1"><g transform="translate(191.118911, 177.907956)"><g><path d="M 8.394531 0 L 8.394531 -1.140625 L 2.542969 -1.140625 L 2.542969 -5.382812 L 8.21875 -5.382812 L 8.21875 -6.539062 L 2.542969 -6.539062 L 2.542969 -10.78125 L 8.394531 -10.78125 L 8.394531 -11.917969 L 1.316406 -11.917969 L 1.316406 0 Z M 8.394531 0 "/></g></g></g><g fill="#ffffff" fill-opacity="1"><g transform="translate(205.646452, 177.907956)"><g><path d="M 2.542969 -8.78125 L 9.238281 0.734375 L 9.238281 -11.917969 L 8.011719 -11.917969 L 8.011719 -3.15625 L 1.316406 -12.671875 L 1.316406 0 L 2.542969 0 Z M 2.542969 -8.78125 "/></g></g></g><g fill="#ffffff" fill-opacity="1"><g transform="translate(221.014928, 177.907956)"><g><path d="M 0.351562 -10.816406 L 3.242188 -10.816406 L 3.242188 -0.0351562 L 4.46875 -0.0351562 L 4.46875 -10.816406 L 7.363281 -10.816406 L 7.363281 -11.953125 L 0.351562 -11.953125 Z M 0.351562 -10.816406 "/></g></g></g><g fill="#ffffff" fill-opacity="1"><g transform="translate(233.545246, 177.907956)"><g><path d="M 8.394531 0 L 8.394531 -1.140625 L 2.542969 -1.140625 L 2.542969 -5.382812 L 8.21875 -5.382812 L 8.21875 -6.539062 L 2.542969 -6.539062 L 2.542969 -10.78125 L 8.394531 -10.78125 L 8.394531 -11.917969 L 1.316406 -11.917969 L 1.316406 0 Z M 8.394531 0 "/></g></g></g><g fill="#ffffff" fill-opacity="1"><g transform="translate(248.072787, 177.907956)"><g><path d="M 2.542969 -5.890625 L 2.542969 -10.746094 L 5.3125 -10.746094 C 6.03125 -10.746094 6.609375 -10.515625 7.046875 -10.0625 C 7.464844 -9.605469 7.695312 -9.042969 7.695312 -8.34375 C 7.695312 -7.640625 7.464844 -7.0625 7.011719 -6.589844 C 6.554688 -6.117188 5.996094 -5.890625 5.3125 -5.890625 Z M 8.921875 -8.324219 C 8.921875 -9.34375 8.535156 -10.21875 7.800781 -10.902344 C 7.082031 -11.566406 6.1875 -11.917969 5.136719 -11.917969 L 1.316406 -11.917969 L 1.316406 0 L 2.542969 0 L 2.542969 -4.714844 L 3.960938 -4.714844 L 7.464844 0 L 9.113281 0 L 5.433594 -4.714844 C 6.363281 -4.765625 7.152344 -5.101562 7.800781 -5.714844 C 8.535156 -6.398438 8.921875 -7.273438 8.921875 -8.324219 Z M 8.921875 -8.324219 "/></g></g></g></svg>